<?xml version="1.0" standalone="no"?>
<!DOCTYPE svg PUBLIC "-//W3C//DTD SVG 20010904//EN"
 "http://www.w3.org/TR/2001/REC-SVG-20010904/DTD/svg10.dtd">
<svg version="1.0" xmlns="http://www.w3.org/2000/svg"
 width="152.000000pt" height="50.000000pt" viewBox="0 0 152.000000 50.000000"
 preserveAspectRatio="xMidYMid meet">
<metadata>
Created by potrace 1.11, written by Peter Selinger 2001-2013
</metadata>
<g transform="translate(0.000000,50.000000) scale(0.100000,-0.100000)"
fill="#000000" stroke="none">
<path d="M703 417 c-151 -75 -179 -96 -153 -112 14 -9 352 164 347 178 -8 24
-35 15 -194 -66z"/>
<path d="M823 407 c-118 -59 -163 -87 -163 -99 0 -10 5 -18 10 -18 6 0 78 34
160 75 82 41 157 75 165 75 8 0 83 -34 165 -75 82 -41 154 -75 160 -75 5 0 10
8 10 18 0 12 -45 40 -165 100 -91 45 -168 82 -173 81 -4 0 -80 -37 -169 -82z"/>
<path d="M30 211 l0 -111 25 0 c23 0 25 4 25 45 0 45 0 45 35 45 35 0 35 0 35
-45 0 -38 3 -45 20 -45 19 0 20 7 20 110 0 103 -1 110 -20 110 -17 0 -20 -7
-20 -45 0 -45 0 -45 -34 -45 -34 0 -35 1 -38 43 -2 35 -7 43 -25 45 -23 3 -23
2 -23 -107z"/>
<path d="M225 235 c-30 -29 -33 -83 -7 -115 25 -31 88 -32 113 -1 42 51 6 141
-56 141 -14 0 -37 -11 -50 -25z"/>
<path d="M360 180 c0 -73 2 -80 20 -80 16 0 19 8 22 58 3 49 6 57 23 57 17 0
20 -8 23 -57 3 -50 6 -58 22 -58 17 0 20 7 20 49 0 49 18 79 40 66 5 -3 10
-31 10 -61 0 -51 1 -54 25 -54 19 0 23 4 18 18 -6 15 -4 15 15 -2 19 -17 36
-19 134 -17 62 1 114 6 116 10 2 5 16 2 32 -5 25 -13 33 -13 64 0 22 9 36 22
36 33 0 15 4 13 23 -8 12 -15 30 -29 39 -32 30 -10 75 12 88 43 35 85 -53 158
-115 95 l-25 -24 -25 24 c-31 32 -69 32 -101 -1 -21 -20 -25 -33 -22 -65 3
-38 3 -39 -30 -39 l-34 0 23 38 c13 20 29 47 37 60 14 22 14 22 -47 22 -48 0
-61 -3 -61 -15 0 -9 9 -15 25 -15 31 0 31 -1 -3 -58 l-27 -47 -5 58 c-7 76
-43 104 -104 81 -30 -12 -18 -34 18 -34 19 0 38 -4 41 -10 3 -6 -4 -10 -17
-10 -14 0 -33 -7 -44 -15 -21 -16 -35 -19 -33 -7 1 4 1 19 0 35 -1 35 -42 57
-71 39 -15 -9 -25 -9 -45 0 -20 9 -31 9 -45 0 -12 -7 -21 -8 -25 -2 -3 6 -13
10 -21 10 -11 0 -14 -17 -14 -80z"/>
<path d="M1149 253 c0 -5 -1 -39 -2 -78 0 -64 2 -70 21 -73 19 -3 21 2 24 55
3 50 6 58 23 58 17 0 20 -8 23 -57 3 -49 6 -58 22 -58 16 0 19 9 22 57 3 50 6
58 23 58 17 0 20 -8 23 -57 3 -50 6 -58 22 -58 12 0 20 7 20 17 0 14 2 14 20
-2 21 -19 70 -25 103 -12 12 4 17 18 17 46 0 79 -37 121 -94 107 -40 -10 -33
-36 9 -36 44 0 46 -15 4 -24 -18 -3 -38 -14 -45 -24 -12 -15 -13 -12 -14 26 0
36 -4 44 -26 54 -19 9 -30 9 -44 0 -15 -9 -25 -9 -45 0 -21 9 -31 9 -48 -1
-15 -10 -22 -11 -25 -2 -4 12 -31 15 -33 4z"/>
</g>
</svg>
